<?xml version="1.0" encoding="iso-8859-1"?>
<!-- Uploaded to: SVG Repo, www.svgrepo.com, Generator: SVG Repo Mixer Tools -->
<svg fill="#000000" height="800px" width="800px" version="1.1" id="Layer_1" xmlns="http://www.w3.org/2000/svg" xmlns:xlink="http://www.w3.org/1999/xlink" 
	 viewBox="0 0 512 512" xml:space="preserve">
<g>
	<g>
		<path d="M256.1,228.036c-44.94,0-81.502,36.562-81.502,81.502c0,44.94,36.562,81.502,81.502,81.502s81.502-36.562,81.502-81.502
			C337.602,264.598,301.04,228.036,256.1,228.036z M256.1,370.143c-33.417,0-60.604-27.187-60.604-60.604
			s27.187-60.604,60.604-60.604c33.417,0,60.604,27.187,60.604,60.604S289.517,370.143,256.1,370.143z"/>
	</g>
</g>
<g>
	<g>
		<path d="M293.041,272.594c-20.368-20.368-53.513-20.369-73.885,0.001c-11.555,11.556-16.972,27.486-14.865,43.706
			c0.743,5.724,5.994,9.763,11.708,9.015c5.723-0.743,9.759-5.986,9.015-11.708c-1.265-9.74,1.984-19.303,8.918-26.236
			c12.223-12.222,32.11-12.221,44.331,0c5.921,5.92,9.182,13.793,9.182,22.165c0,8.374-3.261,16.245-9.182,22.165
			c-7.105,7.105-16.891,10.326-26.847,8.833c-5.701-0.857-11.027,3.077-11.883,8.784c-0.855,5.707,3.077,11.027,8.784,11.883
			c2.56,0.383,5.129,0.572,7.687,0.572c13.764,0,27.196-5.455,37.034-15.294c9.867-9.868,15.303-22.988,15.303-36.943
			C308.344,295.582,302.909,282.461,293.041,272.594z"/>
	</g>
</g>
<g>
	<g>
		<path d="M233.933,331.704l-0.084-0.085c-4.08-4.08-10.697-4.08-14.778,0s-4.08,10.697,0,14.778l0.085,0.085
			c2.041,2.041,4.715,3.06,7.388,3.06s5.349-1.02,7.388-3.06C238.014,342.402,238.014,335.785,233.933,331.704z"/>
	</g>
</g>
<g>
	<g>
		<path d="M411.093,266.698h-15.326v-28.212c0-5.771-4.678-10.449-10.449-10.449h-16.47v-39.519h13.072
			c16.132,0,29.257-13.125,29.257-29.257v-1.239c0-16.132-13.125-29.257-29.257-29.257h-13.459
			c-4.973-53.907-48.01-96.947-101.912-101.918V10.449C266.549,4.678,261.871,0,256.1,0c-5.771,0-10.449,4.678-10.449,10.449v16.397
			c-53.903,4.975-96.939,48.013-101.912,101.918H130.28c-16.132,0-29.257,13.125-29.257,29.257v1.239
			c0,16.132,13.125,29.257,29.257,29.257h12.871v39.519h-16.47c-5.771,0-10.449,4.678-10.449,10.449v28.212h-15.326
			c-5.771,0-10.449,4.678-10.449,10.449v64.784c0,5.771,4.678,10.449,10.449,10.449h15.326v28.212
			c0,5.771,4.678,10.449,10.449,10.449h16.47v55.131h-10.093c-5.771,0-10.449,4.678-10.449,10.449v44.931
			c0,5.771,4.678,10.449,10.449,10.449h246.084c5.771,0,10.449-4.678,10.449-10.449V456.62c0-5.771-4.678-10.449-10.449-10.449
			h-10.293v-55.131h16.471c5.771,0,10.449-4.678,10.449-10.449v-28.212h15.326c5.771,0,10.449-4.678,10.449-10.449v-64.784
			C421.542,271.376,416.864,266.698,411.093,266.698z M116.232,331.481h-4.877v-43.886h4.877V331.481z M143.15,370.143h-6.021
			V248.934h6.021V370.143z M256.103,47.254c47.17,0,86.156,35.702,91.358,81.508H164.738
			C169.941,82.958,208.93,47.254,256.103,47.254z M368.693,491.102H143.507v-24.033h225.186V491.102z M164.049,446.171v-257.35
			h183.902v257.35H164.049z M130.279,167.619c-4.609,0-8.359-3.75-8.359-8.359v-1.239c0-4.609,3.75-8.359,8.359-8.359h23.42h204.8
			h23.42c4.609,0,8.359,3.75,8.359,8.359v1.239c0,4.609-3.75,8.359-8.359,8.359H130.279z M374.87,370.143h-0.001h-6.021V248.934
			h6.022V370.143z M400.644,331.481h-4.877v-43.886h4.877V331.481z"/>
	</g>
</g>
<g>
	<g>
		<path d="M313.343,78.701c-15.543-14.604-35.872-22.646-57.244-22.646c-5.771,0-10.449,4.678-10.449,10.449
			c0,5.771,4.678,10.449,10.449,10.449c16.034,0,31.281,6.03,42.933,16.977c2.018,1.895,4.588,2.834,7.153,2.834
			c2.784,0,5.561-1.106,7.617-3.294C317.754,89.265,317.549,82.652,313.343,78.701z"/>
	</g>
</g>
<g>
	<g>
		<path d="M330.045,101.305c-4.08-4.08-10.697-4.08-14.778,0c-4.081,4.08-4.08,10.697,0,14.778l0.069,0.069
			c2.032,2.031,4.683,3.043,7.337,3.043c2.677,0,5.356-1.029,7.405-3.077C334.16,112.036,334.124,105.385,330.045,101.305z"/>
	</g>
</g>
</svg>