<?xml version="1.0" encoding="iso-8859-1"?>
<!-- Uploaded to: SVG Repo, www.svgrepo.com, Generator: SVG Repo Mixer Tools -->
<!DOCTYPE svg PUBLIC "-//W3C//DTD SVG 1.1//EN" "http://www.w3.org/Graphics/SVG/1.1/DTD/svg11.dtd">
<svg fill="#000000" height="800px" width="800px" version="1.1" id="Capa_1" xmlns="http://www.w3.org/2000/svg" xmlns:xlink="http://www.w3.org/1999/xlink" 
	 viewBox="0 0 460 460" xml:space="preserve">
<g id="XMLID_894_">
	<path id="XMLID_1277_" d="M0,244.548v99.41c0,4.011,3.252,7.263,7.263,7.263h34.72c3.518,23.422,23.772,41.44,48.159,41.44
		s44.641-18.018,48.159-41.44H249.18c3.518,23.422,23.772,41.44,48.159,41.44c21.96,0,40.564-14.613,46.619-34.623
		c6.055,20.01,24.659,34.623,46.619,34.623c24.387,0,44.641-18.018,48.159-41.44h14c4.011,0,7.263-3.252,7.263-7.263v-62.159
		c0-4.011-3.252-7.263-7.263-7.263h-3.096V157.481c0-4.011-3.252-7.263-7.263-7.263h-19.541l-185.36-61.786
		c-3.807-1.27-7.919,0.789-9.188,4.594c-1.268,3.806,0.788,7.919,4.593,9.187l36.659,12.22c-0.117,0.518-0.185,1.056-0.185,1.61
		v34.176H162.661c-4.011,0-7.263,3.252-7.263,7.263v117.055h-16.553V157.481c0-4.011-3.252-7.263-7.263-7.263H97.405V133.15
		c0-13.46-10.912-24.372-24.372-24.372h-7.222c-13.46,0-24.372,10.912-24.372,24.372v17.067H27.983
		c-3.333,0-6.238,2.268-7.046,5.502L1.006,236.294C0.338,238.995,0,241.766,0,244.548z M387.481,233.097v-26.913h26.913v26.913
		H387.481z M346.041,233.097v-26.913h26.913v26.913H346.041z M304.602,233.097v-26.913h26.912v26.913H304.602z M263.163,233.097
		v-26.913h26.913v26.913H263.163z M428.921,206.183h6.194v26.913h-6.194V206.183z M283.883,119.212l93.017,31.005h-93.017V119.212z
		 M435.114,164.744v26.913H235.18c-4.012,0-7.263,3.252-7.263,7.263s3.251,7.263,7.263,7.263h13.457v26.913H235.18
		c-4.012,0-7.263,3.252-7.263,7.263c0,4.011,3.251,7.263,7.263,7.263h199.934v26.913h-265.19V164.744H435.114z M124.318,233.097
		H97.405v-68.353h26.913V233.097z M55.966,133.15c0-5.429,4.417-9.845,9.846-9.845h7.222c5.429,0,9.846,4.417,9.846,9.845v17.067
		H55.966V133.15z M33.654,164.744h49.225v68.353H16.566L33.654,164.744z M14.526,289.062h6.194v6.194h-6.194V289.062z
		 M41.983,336.695H14.526v-26.913h13.457c4.011,0,7.263-3.252,7.263-7.263v-20.72c0-4.011-3.252-7.263-7.263-7.263H14.526v-26.913
		h109.792v61.679c-8.799-8.678-20.87-14.046-34.176-14.046C65.755,295.256,45.501,313.273,41.983,336.695z M90.142,378.135
		c-18.845,0-34.177-15.332-34.177-34.177s15.332-34.176,34.177-34.176s34.176,15.331,34.176,34.176S108.987,378.135,90.142,378.135z
		 M138.845,289.062h6.194v23.817c0,4.011,3.252,7.263,7.263,7.263h102.579c-2.836,5.036-4.809,10.618-5.7,16.553H138.845V289.062z
		 M297.339,378.135c-18.845,0-34.177-15.332-34.177-34.177s15.331-34.176,34.177-34.176c18.845,0,34.176,15.331,34.176,34.176
		S316.184,378.135,297.339,378.135z M390.577,378.135c-18.845,0-34.176-15.332-34.176-34.177s15.331-34.176,34.176-34.176
		c18.845,0,34.177,15.331,34.177,34.176S409.423,378.135,390.577,378.135z M267.265,305.616h-107.7v-16.553h285.909v47.633h-6.737
		c-3.518-23.422-23.772-41.439-48.159-41.439c-21.96,0-40.564,14.613-46.619,34.623c-6.055-20.01-24.659-34.623-46.619-34.623
		C285.995,295.256,275.553,299.088,267.265,305.616z"/>
	<path id="XMLID_1352_" d="M110.862,268.343c4.011,0,7.263-3.252,7.263-7.263c0-4.011-3.252-7.263-7.263-7.263H90.142
		c-4.011,0-7.263,3.252-7.263,7.263c0,4.011,3.252,7.263,7.263,7.263H110.862z"/>
	<path id="XMLID_1353_" d="M69.422,92.225c4.011,0,7.263-3.252,7.263-7.263v-10.36c0-4.011-3.252-7.263-7.263-7.263
		c-4.011,0-7.263,3.252-7.263,7.263v10.36C62.159,88.973,65.411,92.225,69.422,92.225z"/>
	<path id="XMLID_1354_" d="M33.207,110.818c1.418,1.418,3.277,2.127,5.136,2.127c1.859,0,3.718-0.709,5.136-2.127
		c2.837-2.836,2.837-7.435,0-10.271l-10.36-10.36c-2.836-2.836-7.435-2.836-10.272,0c-2.837,2.836-2.837,7.435,0,10.271
		L33.207,110.818z"/>
	<path id="XMLID_1355_" d="M100.502,112.945c1.859,0,3.718-0.709,5.136-2.127l10.359-10.36c2.837-2.837,2.837-7.435,0-10.271
		c-2.836-2.837-7.435-2.836-10.272,0l-10.359,10.36c-2.837,2.837-2.837,7.435,0,10.271
		C96.784,112.236,98.643,112.945,100.502,112.945z"/>
</g>
</svg>