<?xml version="1.0" encoding="iso-8859-1"?>
<!-- Uploaded to: SVG Repo, www.svgrepo.com, Generator: SVG Repo Mixer Tools -->
<!DOCTYPE svg PUBLIC "-//W3C//DTD SVG 1.1//EN" "http://www.w3.org/Graphics/SVG/1.1/DTD/svg11.dtd">
<svg fill="#000000" height="800px" width="800px" version="1.1" id="Capa_1" xmlns="http://www.w3.org/2000/svg" xmlns:xlink="http://www.w3.org/1999/xlink" 
	 viewBox="0 0 443.971 443.971" xml:space="preserve">
<g>
	<path d="M434.65,338.12c-41.064,8.792-79.538,10.536-116.436,8.87c3.15-7.75,4.845-16.638,4.845-25.797
		c0-28.693-15.791-51.17-35.95-51.17h-58.71c-20.153,0-35.939,22.477-35.939,51.17c0,3.981,0.321,7.891,0.938,11.697
		c-63.511-8.639-124.536-14.337-189.49,5.345c-2.907,0.881-4.55,3.952-3.669,6.859c0.881,2.907,3.954,4.549,6.858,3.668
		c69.856-21.167,136.01-11.867,206.048-2.021c41.691,5.861,84.229,11.841,129.485,11.841c30.061,0,61.324-2.64,94.323-9.705
		c2.971-0.636,4.862-3.559,4.227-6.529C440.543,339.376,437.619,337.488,434.65,338.12z M312.059,321.192
		c0,9.219-1.983,18.02-5.625,25.158c-2.991-0.193-5.97-0.412-8.942-0.644c0.537-0.812,0.955-1.521,1.219-1.996
		c2.411-4.345,5.285-11.779,5.285-22.519c0-3.038-2.463-5.5-5.5-5.5s-5.5,2.462-5.5,5.5c0,10.621-3.56,17.42-5.884,20.145
		c-2.324-2.725-5.884-9.524-5.884-20.145c0-12.527,4.953-19.739,6.988-21.216c2.508-0.512,4.396-2.73,4.396-5.389
		c0-3.038-2.463-5.5-5.5-5.5c-5.825,0-10.35,7.338-11.598,9.587c-2.412,4.345-5.286,11.778-5.286,22.518
		c0,10.712,2.859,18.133,5.266,22.483c-3.135-0.332-6.262-0.675-9.379-1.034c-2.588-6.422-3.946-13.772-3.946-21.448
		c0-21.774,11.421-40.17,24.939-40.17C300.633,281.022,312.059,299.418,312.059,321.192z M204.897,334.477
		c-0.95-4.255-1.438-8.706-1.438-13.284c0-21.774,11.421-40.17,24.939-40.17h36.212c-8.238,9.299-13.442,23.706-13.442,40.17
		c0,6.96,0.981,13.721,2.832,19.985c-13.228-1.663-26.32-3.502-39.326-5.331C211.407,335.388,208.15,334.931,204.897,334.477z"/>
	<path d="M394.953,154.39c19.023,0,34.5-15.477,34.5-34.5s-15.477-34.5-34.5-34.5s-34.5,15.477-34.5,34.5
		S375.929,154.39,394.953,154.39z M394.953,96.39c12.958,0,23.5,10.542,23.5,23.5s-10.542,23.5-23.5,23.5s-23.5-10.542-23.5-23.5
		S381.995,96.39,394.953,96.39z"/>
	<path d="M35.453,306.89c0,3.038,2.463,5.5,5.5,5.5h69.881c13.925,0,24.833-15.154,24.833-34.5s-10.908-34.5-24.833-34.5H73.55
		c-13.925,0-24.833,15.154-24.833,34.5c0,9.163,2.45,17.382,6.506,23.5H40.953C37.916,301.39,35.453,303.852,35.453,306.89z
		 M124.666,277.89c0,12.738-6.335,23.5-13.833,23.5S97,290.628,97,277.89s6.335-23.5,13.833-23.5S124.666,265.151,124.666,277.89z
		 M59.717,277.89c0-12.738,6.335-23.5,13.833-23.5h18.956C88.451,260.507,86,268.727,86,277.89s2.45,17.382,6.506,23.5H73.55
		C66.052,301.39,59.717,290.628,59.717,277.89z"/>
	<path d="M440.063,223.496c-13.313-4.031-26.779-7.679-40.097-10.905c-2.168-12.119-10.036-20.861-19.68-20.861h-28.493
		c-5.831,0-11.009,3.2-14.675,8.406c-25.933-3.986-52.123-6.606-78.379-7.85c0.76-2.159,1.194-4.569,1.194-7.141
		c0-9.41-5.646-16.781-12.855-16.781h-15.146c-7.208,0-12.854,7.371-12.854,16.781c0,2.243,0.329,4.365,0.916,6.304
		c-9.078,0.039-18.151,0.244-27.214,0.613c-2.805-8.666-9.16-14.582-16.731-14.582h-24.638c-8.893,0-16.109,8.159-17.864,19.354
		c-42.96,5.181-85.655,14.137-126.973,26.663c-2.907,0.881-4.549,3.953-3.668,6.859c0.721,2.375,2.901,3.906,5.262,3.906
		c0.528,0,1.065-0.077,1.598-0.238c40.31-12.22,81.95-20.993,123.857-26.12c0.491,2.872,1.342,5.536,2.491,7.904H111.62
		c-3.037,0-5.5,2.462-5.5,5.5s2.463,5.5,5.5,5.5h64.429c10.033,0,17.932-10.385,18.26-23.799
		c46.137-1.811,92.579,0.727,138.23,7.555c-0.661,2.763-1.022,5.727-1.022,8.829c0,6.307,1.473,12.059,3.984,16.664h-29.729
		c-3.037,0-5.5,2.462-5.5,5.5s2.463,5.5,5.5,5.5h74.515c10.218,0,18.441-9.815,20.004-23.062
		c12.167,3.002,24.439,6.351,36.586,10.029c0.531,0.161,1.067,0.237,1.596,0.237c2.36,0,4.543-1.532,5.262-3.908
		C444.614,227.446,442.97,224.376,440.063,223.496z M144.135,202.144c0-7.82,3.841-13.664,7.275-13.664h9.339
		c-1.887,3.888-2.978,8.572-2.978,13.664s1.091,9.775,2.978,13.664h-9.339C147.976,215.807,144.135,209.964,144.135,202.144z
		 M176.048,215.807c-3.435,0-7.276-5.843-7.276-13.664s3.842-13.664,7.276-13.664s7.275,5.843,7.275,13.664
		S179.483,215.807,176.048,215.807z M249.933,185.144c0,3.949-1.667,6.22-2.555,6.683c-0.216-0.007-0.433-0.017-0.649-0.024
		c-0.9-0.523-2.505-2.788-2.505-6.66c0-4.45,2.121-6.781,2.854-6.781S249.933,180.695,249.933,185.144z M231.932,178.363h3.356
		c-0.682,2.065-1.064,4.353-1.064,6.781c0,2.274,0.336,4.424,0.938,6.385c-1.33-0.021-2.66-0.029-3.99-0.043
		c-0.905-0.867-2.094-3.01-2.094-6.342C229.078,180.695,231.199,178.363,231.932,178.363z M342.516,219.393
		c0-9.82,4.889-16.663,9.276-16.663h12.202c-2.511,4.605-3.984,10.356-3.984,16.663s1.473,12.059,3.984,16.664h-12.202
		C347.405,236.056,342.516,229.213,342.516,219.393z M380.286,236.056c-4.387,0-9.275-6.843-9.275-16.664
		c0-9.82,4.889-16.663,9.275-16.663c4.388,0,9.276,6.843,9.276,16.663C389.562,229.213,384.673,236.056,380.286,236.056z"/>
</g>
</svg>