<?xml version="1.0" encoding="utf-8"?>
<!-- Uploaded to: SVG Repo, www.svgrepo.com, Generator: SVG Repo Mixer Tools -->
<svg fill="#000000" width="800px" height="800px" viewBox="0 -48.58 277.879 277.879" xmlns="http://www.w3.org/2000/svg">
  <g id="Group_8" data-name="Group 8" transform="translate(-94.197 -323.065)">
    <path id="Path_104" data-name="Path 104" d="M94.2,414.607c12.206-3.051,23.967-6.548,36.039-9.733q-2.106-4.211-4.209-8.418-14.4,2.836-29.2,5.261a153.761,153.761,0,0,1,26.042-11.574,25.8,25.8,0,0,0-2.893-6.05,35.56,35.56,0,0,1,7.628-2.1c.557-.658-1-2.515.263-3.156.972-.575,1.94.768,1.578,2.367,3.849.535,5.394,3.375,7.1,6.051,23.489-3.313,49.376-6.952,73.917-10.523,3.465-.5,7.735-.563,10.258-1.578,2.165-.87,4.223-3.966,7.366-3.156,1.714-2.759,4.554-4.389,7.365-6.051-1.006-2.852-1.632-6.083-3.156-8.418.1-1.7,1.332-3.533-.264-5-1.8.3-3.01,1.2-4.734,1.58,2.771-2.555,7.14-3.291,10.785-3.946-1.244.948-3.275,1.109-4.735,1.841a5.77,5.77,0,0,0,2.63,4.472c-1.011,2.617,1.653,5.567,2.1,8.417,2.337.325,8.088-.808,9.732,1.052a64.568,64.568,0,0,0,11.575-4.734,2.237,2.237,0,0,1,.263,1.578c30.231-12.3,56.947-28.106,87.859-39.721-27.962,13.687-56.683,26.616-84.176,40.773,34.236-11.241,67.477-25.067,104.168-35.512,1.257-.357,7.511-2.19,2.893-.526-18.917,6.817-37.452,12.215-55.5,19.2-8.882,3.438-17.629,7.353-26.568,10.785-9.092,3.49-18.656,5.489-27.883,9.469-.811.066-.807.948-1.315,1.316-1.171.205-2.445-.1-3.42.789-.761.438.932,1.429,0,2.1-1.216.888-3.249.96-4.209,2.1-.339,2.011,1.45,1.811,2.631,2.631,1.829,1.27,3.015,4.075,4.735,5a6.458,6.458,0,0,0,5.261-2.63c5.9.637,8.906,4.308,8.417,9.47-.107,1.134-1.368,2.555-1.315,3.682.084,1.772,2.92,3.918,3.946,5.261,1.52,1.992,2.176,3.714,3.682,5.524,8.726-2.084,21.4-3.3,29.462.264,1.052.086,1.461-.469,2.631-.264.574.479.478,1.626,1.051,2.1,6.67,3.967,12.339,11.8,18.414,18.94,2.409,2.828,5.352,4.585,7.1,7.628,2.315,4.022,5.819,14.223,1.578,18.677.06.334.786.345.789,0a19.726,19.726,0,0,0-4.734,6.575c-.856-.546-1.078-1.728-1.842-2.366-3.108,1.451-5.818,3.3-9.733,3.946-.842,1-1.161,2.52-2.105,3.418-.569-.658-.294-2.16-1.315-2.367-1.318.348-2.845.487-2.367,2.631-4.3.515-5.912,5.19-10.258,5.261-.871.014-1.454-.77-2.368-.527-1.32.351-1.434,1.728-2.631,2.631-2.061,1.556-6.354,2.585-8.155,1.578-1.632,1.9-5.6,2.834-9.469,2.368-.443.648.256,1.87-.527,2.631-1.6,1.038-3.834.358-4.208-1.316A46.591,46.591,0,0,1,269.125,478c-.134,3.3-2.356,5.861-4.734,6.05-1.06-1.238,1.5-2.463,1.315-4.472-7.925,2.429-22.437,4.129-31.04.263-1.113,2.518-5.873,3.413-6.05-.526-.975-.187-1.129.45-2.1.263-2.061-2.674-7.135-2.336-9.207-5-7.387-.421-14.46-2.545-21.57-2.368.762,4.5,2.593,7.93,3.683,12.1-1.2-.148-1.639.466-2.894.263-1.511-4.276-2.834-8.74-5.261-12.1-1.653,4.835-2.818,10.159-6.839,12.627.69,3.586-.489,4.575-1.052,7.89a8.407,8.407,0,0,1-3.946,1.053c2.559-.964,3.525-4.871,3.156-7.892-4.67.812-9.31,4.532-14.467,3.683-7.043-1.158-10.436-8.009-14.731-12.1-2.227.842-4.468,1.671-6.577,2.631a54.769,54.769,0,0,0,4.209,5.262c1.295,1.589,3.55,3.48,4.209,5.261,1.306,3.528.3,7.482,1.578,11.836-2.459.609-5.732.4-8.155,1.053h-.262v-.263c-9.053-12.956-18.021-26-26.568-39.458,2.632-1.138,4.867-2.673,7.628-3.683,5.531,5.43,9.753,12.169,15.52,17.361,2.115-.954,4.332-1.8,6.577-2.63-2.994-4.478-3.737-11.6-4.736-19.729-.865-7.058-2.343-13.9-.789-19.728-4.639-9.214-9.432-18.276-14.205-27.357-12.7,2.822-24.866,6.173-37.616,8.943Zm154.411-39.458h2.368c-.32-.47-.049-1.53-.527-1.841C250.353,374.44,249.418,374.731,248.608,375.149Zm-34.722,3.683c-11.043,3.875-23.594,5.566-36.039,7.891-12.544,2.344-25.1,4.876-37.09,7.1a65.794,65.794,0,0,0,4.472,6.839c24.342-6.961,49.1-13.511,72.076-21.833A4.951,4.951,0,0,0,213.886,378.832Zm4.208,3.156c-6.3-.11-11.338,3.179-16.572,6.051-5.122,2.81-11.449,4.008-17.361,5.787-11.739,3.531-23.911,6.736-36.3,10,4.844,8.134,11.539,16.695,16.835,25.253,7.359,4.83,11.67,12.706,16.835,19.729,8.571-3.792,15.516-9.21,24.464-12.626.449-2.755,1.384-4.4,2.1-6.576.51-1.541,2.233-4.746,1.841-6.84-.659-3.532-6.968-2.737-7.364-6.839-.389-4.008,3.656-5.579,7.1-7.1.9-6.179,8.974-7.34,7.365-15.256-.251-1.233-1.734-2.058-1.578-3.683.344-3.6,5.926-3.364,7.366-6.05h2.1c1.125-1.618,5.048-1.757,5.26-3.42-.264,0-.313-.213-.525-.263C225.535,380.406,221.562,385.09,218.094,381.988Zm88.384,24.2c-.331.633-1.4.53-1.84,1.053,2.958,2.475,1.109,6.6,2.629,9.469,2.722-1.163,6.357-2.319,9.208-.526C314.247,411.749,310.435,408.9,306.478,406.189ZM162.064,453.8c.992.2,1.258-.321,2.105-.264a7.762,7.762,0,0,0-2.631-4.209A15.41,15.41,0,0,0,162.064,453.8Z" fill-rule="evenodd"/>
  </g>
</svg>