<?xml version="1.0" encoding="iso-8859-1"?>
<!-- Uploaded to: SVG Repo, www.svgrepo.com, Generator: SVG Repo Mixer Tools -->
<svg fill="#000000" height="800px" width="800px" version="1.1" id="Layer_1" xmlns="http://www.w3.org/2000/svg" xmlns:xlink="http://www.w3.org/1999/xlink" 
	 viewBox="0 0 496 496" xml:space="preserve">
<g>
	<g>
		<g>
			<path d="M456,256h-17.472c-2.416-6.776-7.752-12.112-14.528-14.528v-20.528c4.92-5.624,8-12.896,8-20.944
				c0-8.048-3.08-15.32-8-20.944V168c0-10.416-6.712-19.216-16-22.528V144h24c13.232,0,24-10.768,24-24s-10.768-24-24-24h-40v16
				h-9.016l-9.464-40.992c-3.48-15.072-15.064-26.264-29.52-29.76V0h-16v40h-80h-86.544c-18.736,0-34.768,12.752-38.976,31.008
				L113.016,112H104V96H64c-13.232,0-24,10.768-24,24s10.768,24,24,24h24v1.472c-9.288,3.312-16,12.112-16,22.528v11.056
				c-4.92,5.624-8,12.896-8,20.944c0,8.048,3.08,15.32,8,20.944v20.528c-6.776,2.416-12.112,7.752-14.528,14.528H40
				c-22.056,0-40,17.944-40,40v160c0,22.056,17.944,40,40,40h48c22.056,0,40-17.944,40-40v-57.224L216.656,384h62.688L368,398.776
				V456c0,22.056,17.944,40,40,40h48c22.056,0,40-17.944,40-40V296C496,273.944,478.056,256,456,256z M408,112h24
				c4.416,0,8,3.584,8,8s-3.584,8-8,8h-24V112z M416,200c0,8.824-7.176,16-16,16c-8.824,0-16-7.176-16-16c0-8.824,7.176-16,16-16
				C408.824,184,416,191.176,416,200z M392,128v8v8h-1.632l-3.696-16H392z M104,136v-8h5.328l-3.696,16H104V136z M64,128
				c-4.416,0-8-3.584-8-8s3.584-8,8-8h24v16H64z M88,168c0-4.416,3.584-8,8-8h22.368l19.704-85.4
				c2.52-10.952,12.136-18.6,23.384-18.6H248h86.544c11.24,0,20.856,7.648,23.384,18.6l19.704,85.4H400c4.416,0,8,3.584,8,8v1.136
				c-2.576-0.672-5.224-1.136-8-1.136c-17.648,0-32,14.352-32,32s14.352,32,32,32c2.776,0,5.424-0.464,8-1.136V240H88v-9.136
				c2.576,0.672,5.224,1.136,8,1.136c17.648,0,32-14.352,32-32s-14.352-32-32-32c-2.776,0-5.424,0.464-8,1.136V168z M96,184
				c8.824,0,16,7.176,16,16c0,8.824-7.176,16-16,16s-16-7.176-16-16C80,191.176,87.176,184,96,184z M112,320H88v16h24v16H88v16h24
				v16H88v16h24v16H88v16h24v16H88v16h22.528c-3.312,9.288-12.112,16-22.528,16H72v-16H56v16H40c-10.416,0-19.216-6.712-22.528-16
				H40v-16H16v-16h24v-16H16v-16h24v-16H16v-16h24v-16H16v-16h24v-16H16v-16h24v-16H17.472c3.312-9.288,12.112-16,22.528-16h16v8
				v168h16V302.528c2.512,0.896,5.184,1.472,8,1.472h32V320z M208,369.224l-75.136,12.52l28.208-31.032
				C164,360.664,173.112,368,184,368h24V369.224z M128,363.304V304h32v24.104L128,363.304z M272,368h-48v-32h48V368z M208,320v32
				h-24c-4.416,0-8-3.584-8-8v-9.704L203.544,304h88.912L320,334.296V344c0,4.416-3.584,8-8,8h-24v-32H208z M176,310.504V304h5.912
				L176,310.504z M314.088,304H320v6.504L314.088,304z M288,369.224V368h24c10.888,0,20-7.336,22.928-17.288l28.208,31.032
				L288,369.224z M368,363.304l-32-35.2V304h32V363.304z M80,288c-4.416,0-8-3.584-8-8v-16c0-4.416,3.584-8,8-8h336
				c4.416,0,8,3.584,8,8v16c0,4.416-3.584,8-8,8H80z M480,320h-24v16h24v16h-24v16h24v16h-24v16h24v16h-24v16h24v16h-24v16h22.528
				c-3.312,9.288-12.112,16-22.528,16h-16v-16h-16v16h-16c-10.416,0-19.216-6.712-22.528-16H408v-16h-24v-16h24v-16h-24v-16h24v-16
				h-24v-16h24v-16h-24v-16h24v-16h-24v-16h32c2.816,0,5.488-0.576,8-1.472V448h16V280v-8h16c10.416,0,19.216,6.712,22.528,16H456
				v16h24V320z"/>
			<path d="M346.592,90.8C344.136,79.728,334.504,72,323.168,72H172.832c-11.336,0-20.968,7.728-23.432,18.8L134.024,160h227.952
				L346.592,90.8z M153.976,144l11.056-49.736c0.808-3.688,4.024-6.264,7.8-6.264H323.16c3.784,0,6.992,2.576,7.808,6.264
				L342.024,144H153.976z"/>
			<path d="M144,224h208v-48H144V224z M320,192h16v16h-16V192z M288,192h16v16h-16V192z M256,192h16v16h-16V192z M224,192h16v16h-16
				V192z M192,192h16v16h-16V192z M160,192h16v16h-16V192z"/>
		</g>
	</g>
</g>
</svg>