<?xml version="1.0"?>
<svg xmlns:rdf="http://www.w3.org/1999/02/22-rdf-syntax-ns#" xmlns="http://www.w3.org/2000/svg" xmlns:cc="http://web.resource.org/cc/" xmlns:xlink="http://www.w3.org/1999/xlink" xmlns:dc="http://purl.org/dc/elements/1.1/" xmlns:svg="http://www.w3.org/2000/svg" xml:space="preserve" viewBox="-0.52 -0.108 512 454">
		<path d="m41.184 453.42c-22.752 0-41.184-18.5-41.184-41.26 0-7.272 1.872-14.4 5.472-20.664l214.2-370.87c15.912-27.504 55.512-27.504 71.352 0l214.13 370.87c3.672 6.336 5.544 13.392 5.544 20.664 0 22.68-18.432 41.184-41.184 41.256h-428.33z" fill="#ED171F"/>
		<polygon points="52.2 405.9 458.5 405.9 255.31 54.036" fill="#FEB82F"/>
		<path d="m261.58 254.34h-0.648c-3.744 0-7.488 0.432-11.16 1.224-3.6 0.72-7.128 1.656-10.584 2.664l-2.952 0.936-1.152 0.288 0.432-0.648 1.008-1.224 0.864-1.008 1.296-1.368 1.224-1.152 1.656-1.44 2.664-2.304 2.304-2.088 1.872-1.944 2.304-2.952c0.648-1.08 1.152-2.16 1.656-3.384 0.504-1.368 0.792-2.88 0.864-4.392v-0.36c0-1.368-0.216-2.808-0.504-4.176 0-0.144-0.072-0.216-0.216-0.216h-0.144c-1.584 3.024-3.456 6.048-5.472 8.928-1.008 1.512-2.232 2.808-3.672 3.744l-1.08 0.72c0.72-2.376 1.08-4.824 1.08-7.272l0.072-1.584-0.144-2.16-0.15-1.23c-0.144-0.36-0.504-0.648-0.864-0.648-0.432 0-0.792 0.288-0.936 0.648l-0.288 1.224-0.648 1.656-0.792 2.088-0.576 1.368-1.008 2.016c-0.36 0.864-0.936 1.656-1.656 2.232-1.152 1.008-2.952 0.144-2.952-1.368v-0.216l0.648-4.896c0.144-0.504 0.216-1.008 0.288-1.512v-0.072c0-0.216-0.144-0.36-0.36-0.432-0.144-0.072-0.216-0.072-0.36-0.072-0.216 0-0.504 0.072-0.72 0.216l-2.376 1.944-1.8 1.728-1.656 1.656-3.6 4.104c-0.792 0.72-2.016 0.288-2.16-0.792l-0.36-2.16-0.288-2.232-0.144-2.232-0.144-2.376-0.144-0.936c-0.072-0.216-0.216-0.36-0.432-0.36-0.36 0-0.72 0.216-0.936 0.504-1.728 2.232-3.24 4.68-4.464 7.344-0.36 0.792-0.936 1.584-1.512 2.232-0.72 0.72-1.944 0.432-2.232-0.504s-0.576-1.8-0.864-2.736c-0.36-1.08-0.432-1.872-0.216-2.664 0.216-1.08 0.288-2.16 0.288-3.24 0-0.648 0-1.296-0.072-1.944l-0.288-2.088c0-0.576-0.504-1.008-1.08-1.008-0.36 0-0.648 0.144-0.864 0.432-0.72 0.864-1.296 1.8-1.8 2.808-1.008 1.944-1.512 4.104-1.656 6.264l-0.072 1.296c-1.944-2.16-3.6-4.464-4.824-7.056l-0.288-0.576-1.296 7.416-0.504-1.152-0.432-1.08-0.72-1.584-1.368-2.664-1.8-2.736c-0.288-0.288-0.576-0.576-0.936-0.864-0.36-0.36-0.792-0.504-1.296-0.504-1.08 0-1.944 0.864-1.944 1.944 0 0.288 0 0.576 0.072 0.864 0.072 1.584 0.36 3.24 0.936 4.752l0.576 1.656 0.936 2.016c0.072 0.072 0.144 0.144 0.144 0.288-0.072 0.504-0.504 0.792-0.936 0.72l-0.288-0.072-0.648-0.216-0.576-0.36-1.08-0.648-3.744-3.096-0.504-0.432-0.72-0.576-0.504-0.504-0.432-0.504-0.792-0.792c0-0.072-0.072-0.072-0.144-0.144s-0.144-0.072-0.288-0.072-0.288 0.072-0.36 0.288c-0.072 0.216-0.072 0.36-0.072 0.576s0 0.432 0.072 0.648c0.432 1.728 0.936 3.456 1.656 5.04l1.152 2.952 0.36 0.936 0.072 0.36v0.072c0 0.216-0.144 0.36-0.288 0.504-0.36 0.144-0.72 0.144-0.936-0.072l-1.296-0.648-1.44-0.936-1.44-0.936-1.584-1.008-2.52-1.944-3.168-2.736-2.664-2.592c-0.216-0.144-0.36-0.216-0.648-0.288-0.072 0-0.144-0.072-0.216-0.072-0.216 0-0.432 0.144-0.576 0.36-0.144 0.144-0.216 0.36-0.216 0.576 0 0.144 0.072 0.288 0.072 0.36 1.656 3.816 3.96 7.272 6.768 10.152 1.368 1.368 2.736 2.664 4.248 3.816 1.728 1.368 3.6 2.664 5.544 3.744 0.576 0.36 1.152 0.72 1.8 1.08 0.864 0.576 1.728 1.152 2.52 1.8 0.864 0.648 1.584 1.44 2.232 2.232l0.576 0.792c-4.104 0.216-8.28 0.792-12.384 1.728-3.384 0.792-6.552 2.088-9.432 4.032-2.664 1.8-4.464 4.608-4.896 7.776-0.072 0.144-0.072 0.36-0.072 0.576 0 1.944 1.224 3.672 3.024 4.248 0.216 0.072 0.432 0.144 0.576 0.144 0.432 0 0.792-0.144 1.08-0.36l0.288-0.216c0.36 1.44 1.296 2.592 2.52 3.312 1.44 0.792 3.024 1.224 4.608 1.224h0.648c1.728-0.072 3.312-0.288 4.968-0.432 1.512-0.216 3.024-0.432 4.536-0.72 0.864-0.144 1.728-0.216 2.664-0.144 0.936 0.144 1.8 0.576 2.448 1.296 0.504 0.432 0.864 1.008 1.224 1.656 0.648 1.08 1.296 2.088 2.016 3.024 1.944 2.664 4.536 4.896 7.416 6.48 1.584 0.864 3.168 1.656 4.824 2.304 1.656 0.72 3.456 1.296 5.328 1.656 3.312 0.792 6.48 1.296 9.648 1.872 1.872 0.288 3.816 0.792 5.688 1.512 1.584 0.648 3.096 1.512 4.464 2.592 1.656 1.656 2.664 3.816 2.664 6.192v0.144l-0.144 3.456v0.432c0 2.016 0.504 3.96 1.44 5.688 0.216 0.504 0.432 0.936 0.648 1.368 0.072 0.36 0.216 0.648 0.288 1.008 0.216 0.864 0.288 1.728 0.288 2.664 0 0.504-0.072 1.08-0.144 1.584-0.144 1.296-0.36 2.664-0.72 4.032-0.216 1.224-0.648 2.304-1.296 3.384-0.936 1.656-2.088 3.312-3.24 4.896l-5.112 7.056-1.944 2.736-3.096 4.464-2.808 4.032-2.808 4.104-3.744 5.976c-1.152 2.016-2.52 3.816-4.032 5.544-1.656 1.872-3.168 3.816-4.68 5.76s-3.24 3.6-5.184 4.896l-2.376 1.512-2.664 1.512-2.88 1.512-0.648 0.504c-0.144 0-0.216 0.072-0.288 0.144-0.216 0.144-0.36 0.36-0.36 0.576v0.216c0.144 0.504 0.576 0.936 1.08 1.08 0.936 0.288 1.8 0.432 2.736 0.432h0.432c3.168-0.144 5.76-0.288 8.424-0.504 1.944-0.144 4.248-0.72 6.336-1.728 0.72-0.288 1.368-0.72 2.088-1.152 0.792-0.576 1.584-1.296 2.16-2.088 0.432-0.648 0.936-1.224 1.44-1.8 2.88-3.816 5.616-7.704 8.352-11.664 1.224-1.872 2.88-4.032 4.608-6.048 2.736-3.168 5.256-6.408 7.776-9.648 3.024-3.96 6.336-7.848 9.72-11.52 0.864-0.936 1.8-2.016 2.808-3.168 0.576-0.648 1.44-1.512 2.232-2.232 1.224-1.152 2.16-2.592 2.664-4.248 0.504-1.512 1.08-2.88 1.584-4.248 2.952-6.912 13.032-6.12 14.832 1.224l0.504 2.088 0.36 1.584 0.36 2.088 0.216 1.152c0.72 3.096 1.368 6.192 1.872 9.288 0.144 0.72 0.36 1.584 0.504 2.448 0.144 0.792 0.36 1.512 0.648 2.232 0.936 2.232 2.016 4.392 3.312 6.408 1.008 1.584 2.304 2.952 3.744 4.176l5.976 4.608 3.6 3.096 1.656 1.584-3.312 1.368-2.016 0.936-1.8 0.792c-1.296 0.432-2.808 0.864-4.32 1.368-1.296 0.432-2.16 0.792-3.096 1.224-1.152 0.504-2.16 1.296-2.952 2.232-0.288 0.36-0.504 0.792-0.504 1.224 0.072 1.44 0.648 2.88 1.584 3.888 0.72 0.792 1.728 1.368 2.736 1.584 1.296 0.36 2.592 0.504 3.888 0.504h1.008c3.168-0.216 6.192-1.152 9-2.808l6.84-4.176 0.72-0.504c3.024 2.448 6.12 4.608 9.36 6.552 2.088 1.224 4.248 2.232 6.552 3.024 1.44 0.504 3.024 0.864 4.536 0.936l0.936 0.072c0.072-0.36 0.072-0.792 0.072-1.152 0-0.576-0.072-1.224-0.144-1.8-0.216-1.08-0.576-2.088-1.008-3.024-0.36-0.72-0.792-1.44-1.296-2.088-0.792-1.08-1.728-2.16-2.664-3.168l-1.08-1.152-1.296-1.296-1.656-1.296-1.44-1.08-1.152-0.936-1.296-0.72-1.152-0.576c1.8-1.872 3.744-3.672 5.76-5.328 4.104-3.384 7.128-5.832 10.224-8.28 1.44-1.224 3.96-3.888 5.976-6.84 0.792-1.08 1.224-2.448 1.296-3.816l0.072-1.008 0.216-2.376c0.648-5.616 2.304-11.088 4.824-16.128l0.432-0.864c2.664 4.896 7.704 8.064 13.248 8.208h0.504c3.816 0 7.488-1.152 10.512-3.456l3.096-2.232 2.52-1.728 2.664-1.656c0.288-0.216 0.648-0.288 1.008-0.288 1.44-0.072 2.808 0.432 3.888 1.296 0.432 0.288 0.792 0.648 1.008 1.08 0.36 0.504 0.576 1.008 0.864 1.584 0.36 0.792 0.576 1.656 0.72 2.448 0.072 0.792 0.144 1.368 0.216 2.016 0.144 0.792 0.216 1.728 0.36 2.592 0.144 1.44 0.432 2.808 0.864 4.176 0.36 1.368 0.792 2.736 1.152 4.104 0.864 3.384 2.232 6.624 4.032 9.576 1.44 2.304 3.024 4.536 4.824 6.552 0.648 0.792 1.512 1.44 2.376 2.088l3.24 2.088c2.376 1.584 5.112 2.376 7.92 2.376h0.072c1.08 0 1.944-0.72 2.232-1.728 0.216-0.792 0.288-1.656 0.288-2.448 0-1.656-0.432-3.312-1.224-4.824-1.728-3.168-4.104-6.048-6.984-8.352-0.864-0.72-1.8-1.44-2.808-2.232-0.72-0.504-1.296-1.152-1.656-1.944-1.656-3.024-3.024-6.336-3.888-9.792-1.008-4.032-1.8-8.208-2.16-12.456l-0.432-3.96-0.216-2.232-0.072-1.008v-0.144c0-1.656-0.288-3.312-0.864-4.896-0.864-2.16-2.592-3.744-4.752-4.464-0.432-0.144-0.864-0.216-1.296-0.216-0.36 0-0.648 0-0.936 0.072-0.216 0.072-0.576 0.144-1.008 0.216l-1.584 0.36-1.08 0.288-1.08 0.288-1.656 0.288-1.728 0.504-1.944 0.432-1.728 0.504-1.008 0.36c-0.504 0.288-1.008 0.432-1.512 0.576-0.288 0.072-0.504 0.072-0.72 0.072-1.8-0.36-3.024-2.016-2.88-3.816 0.072-1.224 0.144-2.52 0.144-3.744 0-2.016-0.144-3.96-0.36-5.904l-0.144-1.224c0.432-0.072 0.72-0.288 1.08-0.576 1.728-1.872 2.736-4.32 2.736-6.912v-0.504c-0.072-1.512-0.576-3.024-1.44-4.248-2.376-3.528-5.688-6.48-9.504-8.424l-2.952-1.512-1.584-0.72-1.584-0.576-1.368-0.576-1.512-0.576-1.656-0.648c-0.72-0.216-1.44-0.432-2.232-0.648-2.232-0.504-4.464-0.792-6.624-0.936-1.728-0.072-3.456-0.144-5.184-0.144h-0.144c-2.736 0-5.544 0-8.352-0.072-0.792-0.072-1.512-0.072-2.232-0.072-2.232 0-4.464 0.144-6.696 0.288-0.648 0.072-1.224 0.072-1.8 0.072-2.16-0.072-4.32-0.288-6.408-0.72-1.656-0.288-3.168-0.72-4.752-1.296-1.008-0.432-2.16-0.792-3.312-1.152-0.792-0.216-1.512-0.504-2.16-0.864-0.792-0.432-1.584-0.792-2.448-1.152-1.224-0.432-2.376-1.008-3.528-1.728-1.152-0.648-2.448-1.368-3.744-2.016s-2.592-1.296-3.888-2.088c-1.44-0.792-2.952-1.44-4.464-1.872-2.99-0.84-6.02-1.27-9.11-1.34z"/>
		<path d="m314.42 339.16c-0.648 3.456-1.8 6.912-3.384 10.08-3.096 6.048-7.488 11.232-12.888 15.264l-0.792-0.648c-3.096-2.736-5.904-5.688-8.424-8.928l-2.664-3.384c-1.08-1.656-1.944-3.456-2.52-5.328-0.72-2.304-1.152-4.608-1.296-6.984-0.216-4.536-0.072-9.144 0.432-13.752 1.584 0 3.168 0 4.752 0.144 1.296 0.144 2.592 0.288 3.888 0.648 2.952 0.72 6.048 1.152 9.144 1.152 2.952 0 5.904-0.36 8.784-1.08 1.944-0.432 3.816-1.152 5.544-2.16l0.144 1.728c0.072 1.296 0.072 2.448 0.072 3.672 0.02 3.24-0.27 6.41-0.78 9.58z" fill="#FEB82F"/>
<metadata><rdf:RDF><cc:Work><dc:format>image/svg+xml</dc:format><dc:type rdf:resource="http://purl.org/dc/dcmitype/StillImage"/><cc:license rdf:resource="http://creativecommons.org/licenses/publicdomain/"/><dc:publisher><cc:Agent rdf:about="http://openclipart.org/"><dc:title>Openclipart</dc:title></cc:Agent></dc:publisher><dc:title>Warning Moose Roadsign</dc:title><dc:date>2006-11-01T21:18:02</dc:date><dc:description>A sign warning of moose.&#xD;\n &#xD;\n Swedish Road Signs Collection on Wikicommons - &#xD;\n  URL http://commons.wikimedia.org/wiki/Category:Road_signs_of_Sweden&#xD;\n  &#xD;\n  information about why this image is in the public domain can be found there.</dc:description><dc:source>http://openclipart.org/detail/1134/warning-moose-roadsign-by-ryanlerch</dc:source><dc:creator><cc:Agent><dc:title>ryanlerch</dc:title></cc:Agent></dc:creator><dc:subject><rdf:Bag><rdf:li>animal</rdf:li><rdf:li>clip art</rdf:li><rdf:li>clipart</rdf:li><rdf:li>danger</rdf:li><rdf:li>elk</rdf:li><rdf:li>externalsource</rdf:li><rdf:li>image</rdf:li><rdf:li>media</rdf:li><rdf:li>moose</rdf:li><rdf:li>png</rdf:li><rdf:li>public domain</rdf:li><rdf:li>roadsign</rdf:li><rdf:li>sign</rdf:li><rdf:li>svg</rdf:li><rdf:li>sweden</rdf:li><rdf:li>warning</rdf:li><rdf:li>wikimedia commons</rdf:li><rdf:li>wild</rdf:li></rdf:Bag></dc:subject></cc:Work><cc:License rdf:about="http://creativecommons.org/licenses/publicdomain/"><cc:permits rdf:resource="http://creativecommons.org/ns#Reproduction"/><cc:permits rdf:resource="http://creativecommons.org/ns#Distribution"/><cc:permits rdf:resource="http://creativecommons.org/ns#DerivativeWorks"/></cc:License></rdf:RDF></metadata></svg>
