<?xml version="1.0" encoding="UTF-8" standalone="no"?>
<!-- Created with Inkscape (http://www.inkscape.org/) -->

<svg
   xmlns:dc="http://purl.org/dc/elements/1.1/"
   xmlns:cc="http://creativecommons.org/ns#"
   xmlns:rdf="http://www.w3.org/1999/02/22-rdf-syntax-ns#"
   xmlns:svg="http://www.w3.org/2000/svg"
   xmlns="http://www.w3.org/2000/svg"
   xmlns:sodipodi="http://sodipodi.sourceforge.net/DTD/sodipodi-0.dtd"
   xmlns:inkscape="http://www.inkscape.org/namespaces/inkscape"
   width="210.22469"
   height="314.07278"
   id="svg2"
   version="1.1"
   inkscape:version="0.48.4 r9939"
   sodipodi:docname="New document 1">
  <defs
     id="defs4" />
  <sodipodi:namedview
     id="base"
     pagecolor="#ffffff"
     bordercolor="#666666"
     borderopacity="1.0"
     inkscape:pageopacity="0.0"
     inkscape:pageshadow="2"
     inkscape:zoom="1"
     inkscape:cx="141.69152"
     inkscape:cy="150.11493"
     inkscape:document-units="px"
     inkscape:current-layer="layer1"
     showgrid="false"
     fit-margin-top="10"
     fit-margin-left="10"
     fit-margin-right="10"
     fit-margin-bottom="10"
     inkscape:window-width="1280"
     inkscape:window-height="962"
     inkscape:window-x="-8"
     inkscape:window-y="-8"
     inkscape:window-maximized="1" />
  <metadata
     id="metadata7">
    <rdf:RDF>
      <cc:Work
         rdf:about="">
        <dc:format>image/svg+xml</dc:format>
        <dc:type
           rdf:resource="http://purl.org/dc/dcmitype/StillImage" />
        <dc:title></dc:title>
      </cc:Work>
    </rdf:RDF>
  </metadata>
  <g
     inkscape:label="Layer 1"
     inkscape:groupmode="layer"
     id="layer1"
     transform="translate(-143.38766,-259.82578)">
    <g
       id="g3039">
      <rect
         ry="13.908228"
         y="270.82578"
         x="154.38766"
         height="292.07278"
         width="188.22469"
         id="rect2985"
         style="fill:none;stroke:#1a1a1a;stroke-width:2" />
      <path
         inkscape:connector-curvature="0"
         d="m 273.53364,303.8448 c -0.0282,3.63603 -0.96423,6.5832 -2.80817,8.84152 -1.84398,2.25833 -4.42693,3.42136 -7.74886,3.4891 -3.32196,-0.0677 -5.90491,-1.23077 -7.74886,-3.4891 -1.84397,-2.25832 -2.78002,-5.20549 -2.80817,-8.84152 0.0282,-3.63599 0.9642,-6.58316 2.80817,-8.84151 1.84395,-2.2583 4.4269,-3.42133 7.74886,-3.4891 3.32193,0.0678 5.90488,1.2308 7.74886,3.4891 1.84394,2.25835 2.77999,5.20552 2.80817,8.84151 z m 4.22281,0 c 0.0271,-2.25762 -0.41188,-4.60675 -1.31689,-7.0474 -0.90506,-2.4406 -2.43883,-4.5176 -4.6013,-6.23099 -2.16252,-1.71334 -5.1164,-2.60795 -8.86165,-2.68384 -3.74528,0.0759 -6.69916,0.9705 -8.86165,2.68384 -2.1625,1.71339 -3.69627,3.79039 -4.6013,6.23099 -0.90504,2.44065 -1.344,4.78978 -1.31689,7.0474 -0.0271,2.25766 0.41185,4.60679 1.31689,7.04741 0.90504,2.44063 2.4388,4.51763 4.6013,6.23099 2.16249,1.71337 5.11637,2.60798 8.86165,2.68383 3.74525,-0.0759 6.69913,-0.97046 8.86165,-2.68383 2.16247,-1.71336 3.69624,-3.79036 4.6013,-6.23099 0.90501,-2.44062 1.34397,-4.78975 1.31689,-7.04741 z m -38.41346,9.33242 -0.0845,0 -15.15989,-24.49231 -4.85624,0 0,30.31979 3.96945,0 0,-24.49231 0.0845,0 15.41327,24.49231 4.60286,0 0,-30.31979 -3.96944,0 z"
         style="font-size:42.2286644px;font-style:normal;font-variant:normal;font-weight:normal;font-stretch:normal;text-align:center;line-height:125%;letter-spacing:0px;word-spacing:0px;writing-mode:lr-tb;text-anchor:middle;fill:#000000;fill-opacity:1;stroke:none;font-family:Helvetica LT Std;-inkscape-font-specification:Helvetica LT Std"
         id="path3004" />
      <path
         inkscape:connector-curvature="0"
         d="m 301.29924,365.96305 -0.0845,0 -15.1599,-24.49231 -4.85623,0 0,30.31979 3.96944,0 0,-24.49231 0.0845,0 15.41326,24.49231 4.60286,0 0,-30.31979 -3.96944,0 z m -46.01452,-7.17878 9.92361,0 c 2.36827,0.0695 3.88144,0.65895 4.53952,1.7683 0.65803,1.10938 0.94659,2.32168 0.86568,3.6369 -0.007,0.69941 0.0387,1.87652 0.13724,3.53133 0.0985,1.65481 0.29205,3.01139 0.58063,4.06973 l 5.02515,0 0,-0.67565 c -0.61498,-0.33519 -1.02142,-0.72052 -1.21934,-1.156 -0.19797,-0.43547 -0.29826,-1.06361 -0.30087,-1.88442 l -0.25337,-5.48966 c -0.11704,-2.04013 -0.527,-3.42838 -1.2299,-4.16475 -0.70294,-0.73634 -1.50352,-1.24835 -2.40172,-1.53605 1.02577,-0.52167 1.97238,-1.31521 2.83984,-2.38061 0.86741,-1.06536 1.3284,-2.6929 1.38297,-4.88262 -0.10384,-3.14773 -1.14194,-5.3084 -3.11432,-6.48202 -1.97243,-1.17356 -4.25626,-1.72956 -6.85151,-1.66801 l -14.01974,0 0,30.31979 4.09613,0 z m 0,-13.8086 10.2192,0 c 1.11375,-0.0818 2.27502,0.17686 3.48382,0.77594 1.20876,0.59914 1.86329,2.02962 1.96361,4.29144 -0.0695,2.17653 -0.7223,3.60876 -1.95833,4.29671 -1.23607,0.68798 -2.6384,1.00117 -4.20698,0.93958 l -9.50132,0 z m -15.23023,-3.50493 0,19.17157 c -0.0977,3.2287 -0.95807,5.43863 -2.5812,6.62981 -1.62316,1.19119 -3.42313,1.75423 -5.39992,1.68913 -1.92755,0.0616 -3.6677,-0.51553 -5.22045,-1.73136 -1.55277,-1.21581 -2.37446,-3.43982 -2.46506,-6.67204 l 0,-19.08711 -4.09613,0 0,20.22727 c -0.0238,2.92958 0.89998,5.45271 2.77122,7.56939 1.87123,2.11668 4.83247,3.22517 8.88374,3.32546 4.14801,-0.0888 7.22187,-1.22021 9.22157,-3.39408 1.99965,-2.17386 2.99377,-4.85711 2.98236,-8.04974 l 0,-19.6783 z m -48.32316,3.63162 10.26143,0 0,26.68817 4.09613,0 0,-26.68817 10.26143,0 0,-3.63162 -24.61899,0 z"
         style="font-size:42.2286644px;font-style:normal;font-variant:normal;font-weight:normal;font-stretch:normal;text-align:center;line-height:125%;letter-spacing:0px;word-spacing:0px;writing-mode:lr-tb;text-anchor:middle;fill:#000000;fill-opacity:1;stroke:none;font-family:Helvetica LT Std;-inkscape-font-specification:Helvetica LT Std"
         id="path3012" />
      <path
         inkscape:connector-curvature="0"
         d="m 273.76048,418.74888 -0.0845,0 -15.1599,-24.49231 -4.85623,0 0,30.31979 3.96944,0 0,-24.49231 0.0845,0 15.41326,24.49231 4.60287,0 0,-30.31979 -3.96944,0 z m -29.15234,-9.33241 c -0.0282,3.63602 -0.96424,6.58319 -2.80818,8.84151 -1.84398,2.25833 -4.42693,3.42136 -7.74886,3.4891 -3.32195,-0.0677 -5.9049,-1.23077 -7.74886,-3.4891 -1.84396,-2.25832 -2.78002,-5.20549 -2.80817,-8.84151 0.0281,-3.636 0.96421,-6.58317 2.80817,-8.84152 1.84395,-2.2583 4.42691,-3.42133 7.74886,-3.4891 3.32193,0.0678 5.90488,1.23081 7.74886,3.4891 1.84394,2.25835 2.78,5.20552 2.80818,8.84152 z m 4.22281,0 c 0.0271,-2.25763 -0.41189,-4.60676 -1.3169,-7.04741 -0.90506,-2.4406 -2.43883,-4.5176 -4.6013,-6.23099 -2.16252,-1.71334 -5.1164,-2.60795 -8.86165,-2.68383 -3.74528,0.0759 -6.69916,0.97049 -8.86165,2.68383 -2.1625,1.71339 -3.69626,3.79039 -4.6013,6.23099 -0.90504,2.44065 -1.344,4.78978 -1.31689,7.04741 -0.0271,2.25765 0.41186,4.60678 1.31689,7.0474 0.90504,2.44063 2.4388,4.51763 4.6013,6.23099 2.16249,1.71337 5.11637,2.60798 8.86165,2.68383 3.74525,-0.0759 6.69913,-0.97046 8.86165,-2.68383 2.16247,-1.71336 3.69624,-3.79036 4.6013,-6.23099 0.90501,-2.44062 1.34398,-4.78975 1.3169,-7.0474 z"
         style="font-size:42.2286644px;font-style:normal;font-variant:normal;font-weight:normal;font-stretch:normal;text-align:center;line-height:125%;letter-spacing:0px;word-spacing:0px;writing-mode:lr-tb;text-anchor:middle;fill:#000000;fill-opacity:1;stroke:none;font-family:Helvetica LT Std;-inkscape-font-specification:Helvetica LT Std"
         id="path3016" />
      <path
         inkscape:connector-curvature="0"
         d="m 265.1931,477.36219 12.11947,0 c 3.2969,-0.0665 5.89002,-0.90947 7.77935,-2.52899 1.8893,-1.61953 3.22495,-3.61676 4.00698,-5.99171 0.78198,-2.37493 1.16047,-4.72875 1.13547,-7.06148 -0.0379,-4.43833 -1.17626,-7.98725 -3.4152,-10.64676 -2.23899,-2.65946 -5.35155,-4.02308 -9.33769,-4.09085 l -12.28838,0 z m 4.09612,-26.81486 7.64329,0 c 2.81695,9.1e-4 5.02689,0.95984 6.62982,2.8768 1.60288,1.917 2.41929,4.78675 2.44923,8.60925 -0.0335,3.83662 -0.83227,6.76267 -2.39645,8.77817 -1.56422,2.01552 -3.69322,3.03075 -6.387,3.04571 l -7.93889,0 z m -9.71151,23.18324 -18.28477,0 0,-10.13475 16.59565,0 0,-3.63161 -16.59565,0 0,-9.29019 17.98917,0 0,-3.63162 -22.0853,0 0,30.31979 22.3809,0 z m -48.71713,-9.37464 9.92361,0 c 2.36828,0.0695 3.88145,0.65895 4.53952,1.7683 0.65804,1.10938 0.9466,2.32168 0.86568,3.6369 -0.007,0.69941 0.0387,1.87652 0.13724,3.53133 0.0985,1.65481 0.29206,3.01139 0.58064,4.06973 l 5.02515,0 0,-0.67565 c -0.61498,-0.33518 -1.02142,-0.72052 -1.21934,-1.15599 -0.19797,-0.43548 -0.29826,-1.06362 -0.30088,-1.88443 l -0.25336,-5.48966 c -0.11704,-2.04013 -0.527,-3.42838 -1.2299,-4.16475 -0.70295,-0.73634 -1.50352,-1.24835 -2.40172,-1.53605 1.02576,-0.52167 1.97238,-1.31521 2.83984,-2.38061 0.86741,-1.06536 1.3284,-2.6929 1.38297,-4.88262 -0.10384,-3.14773 -1.14195,-5.3084 -3.11432,-6.48202 -1.97243,-1.17356 -4.25627,-1.72956 -6.85152,-1.66801 l -14.01973,0 0,30.31979 4.09612,0 z m 0,-13.8086 10.21921,0 c 1.11375,-0.0818 2.27502,0.17686 3.48382,0.77595 1.20876,0.59913 1.86329,2.02961 1.96361,4.29143 -0.0695,2.17653 -0.7223,3.60876 -1.95833,4.29671 -1.23607,0.68798 -2.6384,1.00117 -4.20698,0.93958 l -9.50133,0 z"
         style="font-size:42.2286644px;font-style:normal;font-variant:normal;font-weight:normal;font-stretch:normal;text-align:center;line-height:125%;letter-spacing:0px;word-spacing:0px;writing-mode:lr-tb;text-anchor:middle;fill:#000000;fill-opacity:1;stroke:none;font-family:Helvetica LT Std;-inkscape-font-specification:Helvetica LT Std"
         id="path3022" />
      <path
         transform="translate(-0.5,0)"
         d="m 275.5,524.36218 c 0,14.63555 -11.86445,26.5 -26.5,26.5 -14.63555,0 -26.5,-11.86445 -26.5,-26.5 0,-14.63554 11.86445,-26.5 26.5,-26.5 14.63555,0 26.5,11.86446 26.5,26.5 z"
         sodipodi:ry="26.5"
         sodipodi:rx="26.5"
         sodipodi:cy="524.36218"
         sodipodi:cx="249"
         id="path2999"
         style="fill:#aa0000;stroke:none"
         sodipodi:type="arc" />
    </g>
  </g>
</svg>
