<?xml version="1.0" encoding="UTF-8" standalone="no"?>
<!-- Generator: Adobe Illustrator 12.0.1, SVG Export Plug-In  -->
<svg xmlns:dc="http://purl.org/dc/elements/1.1/" xmlns:cc="http://creativecommons.org/ns#" xmlns:rdf="http://www.w3.org/1999/02/22-rdf-syntax-ns#" xmlns:svg="http://www.w3.org/2000/svg" xmlns="http://www.w3.org/2000/svg" xmlns:sodipodi="http://sodipodi.sourceforge.net/DTD/sodipodi-0.dtd" xmlns:inkscape="http://www.inkscape.org/namespaces/inkscape" version="1.1" viewBox="-0.999 0 204.71875 272.65625" enable-background="new -0.999 0 289 289" xml:space="preserve" id="svg2" inkscape:version="0.48.2 r9819" sodipodi:docname="AJAX1.svg"><metadata id="metadata18"><rdf:RDF><cc:Work rdf:about=""><dc:format>image/svg+xml</dc:format><dc:type rdf:resource="http://purl.org/dc/dcmitype/StillImage"/><dc:title/></cc:Work></rdf:RDF></metadata><sodipodi:namedview pagecolor="#ffffff" bordercolor="#666666" borderopacity="1" objecttolerance="10" gridtolerance="10" guidetolerance="10" inkscape:pageopacity="0" inkscape:pageshadow="2" inkscape:window-width="1280" inkscape:window-height="1004" id="namedview16" showgrid="false" fit-margin-top="0" fit-margin-left="0" fit-margin-right="0" fit-margin-bottom="0" inkscape:zoom="1.8901802" inkscape:cx="51.083339" inkscape:cy="133.62496" inkscape:window-x="-8" inkscape:window-y="-8" inkscape:window-maximized="1" inkscape:current-layer="svg2" showguides="true" inkscape:guide-bbox="true"/>
<defs id="defs4">
</defs>





<path inkscape:connector-curvature="0" d="m 203.22262,255.16413 c 0,9.3375 -7.64,16.9775 -16.9775,16.9775 l -169.775,0 c -9.337495,0 -16.977495,-7.64 -16.977495,-16.9775 l 0,-237.685 c 0,-9.33875 7.64,-16.97875 16.977495,-16.97875 l 169.775,0 c 9.3375,0 16.9775,7.64 16.9775,16.97875 l 0,237.685 z" style="fill:#ffffff;fill-opacity:1;fill-rule:nonzero;stroke:#000000;stroke-width:1;stroke-miterlimit:4;stroke-opacity:1;stroke-dasharray:none" id="path3831"/><path inkscape:connector-curvature="0" d="m 186.24512,4.74539 -169.775,0 c -7.003745,0 -12.733745,5.73 -12.733745,12.73375 l 0,237.685 c 0,7.00375 5.73,12.73375 12.733745,12.73375 l 169.775,0 c 7.00375,0 12.73375,-5.73 12.73375,-12.73375 l 0,-237.685 c 1e-5,-7.00375 -5.73,-12.73375 -12.73375,-12.73375 m 5.66,250.41875 c 0,3.1125 -2.5475,5.65875 -5.66,5.65875 l -169.775,0 c -3.112495,0 -5.659995,-2.54625 -5.659995,-5.65875 l 0,-237.685 c 0,-3.1125 2.5475,-5.66 5.659995,-5.66 l 169.775,0 c 3.1125,0 5.66,2.5475 5.66,5.66 l 0,237.685 z" style="fill:#000000;fill-opacity:1;fill-rule:nonzero;stroke:none" id="path3839"/><path inkscape:connector-curvature="0" d="m 34.86188,222.66539 83.4725,0 -5.14,15.41125 c -0.16375,0.4925 -0.2525,1.01875 -0.2525,1.56625 0,2.73875 2.22,4.9575 4.9575,4.9575 1.03875,0 2.0025,-0.31875 2.79875,-0.865 l 48.56875,-33.845 -48.56875,-33.845 c -0.79625,-0.545 -1.76,-0.865 -2.79875,-0.865 -2.7375,0 -4.9575,2.22 -4.9575,4.9575 0,0.5475 0.0887,1.07375 0.2525,1.56625 l 5.14,15.41125 -83.4725,0 0,25.55 z" style="fill:#000000;fill-opacity:1;fill-rule:nonzero;stroke:none" id="path3843"/><path inkscape:connector-curvature="0" d="m 64.57012,80.02138 c -3.27,4.275 -7.7125,6.37125 -13.665,6.37125 -7.96375,0 -12.82625,-3.18625 -16.26375,-10.14375 -2.3475,-4.77875 -4.02375,-12.32375 -4.02375,-19.03 0,-9.39 2.3475,-17.7725 6.20375,-23.055 3.26875,-4.4425 7.96375,-6.37125 14.5025,-6.37125 15.6775,0 19.45,16.7675 19.45,29.42625 0,8.88625 -2.26375,17.7725 -6.20375,22.8025 m -13.24625,-43.09 c -5.03,0 -7.37625,2.01125 -9.38875,6.9575 -1.34125,3.35375 -2.18,8.55125 -2.18,13.33 0,5.9525 1.2575,12.07125 3.4375,15.67625 1.76,2.935 4.1075,4.36 7.7125,4.36 4.19125,0 6.79125,-2.18 8.71875,-7.12625 1.17375,-3.0175 2.18,-8.55125 2.18,-12.91 0,-6.53875 -1.425,-20.2875 -10.48,-20.2875" style="fill:#000000;fill-opacity:1;fill-rule:nonzero;stroke:none" id="path3847"/><path inkscape:connector-curvature="0" d="m 115.54425,85.38661 -21.63,-38.3125 0,38.3125 -8.97,0 0,-56.5875 8.97,0 20.62375,36.1325 0,-36.1325 8.88625,0 0,56.5875 -7.88,0 z" style="fill:#000000;fill-opacity:1;fill-rule:nonzero;stroke:none" id="path3851"/><path inkscape:connector-curvature="0" d="m 137.68362,85.38661 0,-56.5875 33.36625,0 0,8.97 -24.39625,0 0,13.8325 16.43125,0 0,9.1375 -16.43125,0 0,15.51 26.15625,0 0,9.1375 -35.12625,0 z" style="fill:#000000;fill-opacity:1;fill-rule:nonzero;stroke:none" id="path3855"/><path inkscape:connector-curvature="0" d="m 68.99162,158.95587 -7.96375,0 -8.88625,-36.3 -8.80375,36.3 -7.88,0 -8.3825,-56.5875 9.1375,0 4.35875,29.76125 7.21,-29.76125 8.71875,0 7.29375,29.76125 4.4425,-29.76125 9.055,0 -8.3,56.5875 z" style="fill:#000000;fill-opacity:1;fill-rule:nonzero;stroke:none" id="path3859"/><path inkscape:connector-curvature="0" d="m 120.7385,158.95587 -5.53375,-15.845 -17.6875,0 -5.53375,15.845 -9.5575,0 19.45,-56.5875 8.97,0 19.45,56.5875 -9.5575,0 z m -14.25125,-40.91125 -5.785,15.92875 11.3175,0 -5.5325,-15.92875 z" style="fill:#000000;fill-opacity:1;fill-rule:nonzero;stroke:none" id="path3863"/><path inkscape:connector-curvature="0" d="m 159.55387,134.30875 0,24.6475 -8.97,0 0,-24.6475 -19.86875,-31.94 10.73125,0 13.49625,21.79625 13.75,-21.79625 10.47875,0 -19.6175,31.94 z" style="fill:#000000;fill-opacity:1;fill-rule:nonzero;stroke:none" id="path3867"/></svg>
