<?xml version="1.0" encoding="UTF-8"?>
<svg width="7560px" height="1620px" viewBox="0 0 6048 1296" xmlns="http://www.w3.org/2000/svg">
<defs>
<style>.a{fill:#ffffff;}</style>
</defs>
<rect class="a" width="6048" height="1296" rx="108"/>
<path d="m5940 27h-5832a81.096 81.096 0 0 0-81 81v1080a81.096 81.096 0 0 0 81 81h5832a81.096 81.096 0 0 0 81-81v-1080a81.096 81.096 0 0 0-81-81zm36 1161a36.041 36.041 0 0 1-36 36h-5832a36.041 36.041 0 0 1-36-36v-1080a36.041 36.041 0 0 1 36-36h5832a36.041 36.041 0 0 1 36 36z"/>
<path d="m286.56 646.44c0-376.99 174.86-370.97 213.65-370.97s211.31-5.76 211.31 371.24c0 379.69-172.52 373.75-211.31 373.75s-213.65 5.9394-213.65-374.02zm212.48-269.99c-20.519 0-113.31-4.23-113.31 270.53 0 276.74 92.787 272.51 113.31 272.51s113.22 4.2305 113.22-272.51c0-274.76-92.696-270.53-113.22-270.53zm431.22 631.5-182.69-719.97h104.04l119.34 467.44 119.15-467.44h104.04l-185.21 719.97zm314.3-719.97h339.47v101.07h-235.61v181.88h149.39v98.546h-149.39v237.5h263.51v100.98h-367.37zm641.08 381.49h-98.366v338.48h-103.32v-719.97h214.28c112.95 0 189.08 75.777 189.08 191.96 0 85.857-35.369 149.03-103.41 174.32l103.32 353.69h-105.75zm-98.366-280.43v181.88h105.84c60.658 0 93.326-32.849 93.326-90.986 0-55.617-37.798-90.896-93.236-90.896zm539.03 530.62c55.797 0 101.43-50.578 101.43-108.72-0.09-153.35-268.82-152.99-268.82-348.74 0-103.59 81.177-186.83 185.12-186.83 101.52 0 180.17 78.207 182.69 186.92h-99.086c-2.52-50.488-38.069-83.336-83.697-83.336-48.238 0-86.216 35.278-86.216 83.247 0 43.108 27.089 60.297 60.657 81.357 97.376 58.768 208.25 129.68 208.25 267.47 0 116.54-88.826 209.69-200.42 209.69-126.8 0-202.85-107.28-202.85-224.99h101.61c1e-4 61.287 30.328 123.92 101.34 123.92zm272.46-631.68h100.8v719.97h-100.8zm172.81 609.18 272.33-508.48h-244.07v-100.71h375.01v65.518l-295.37 556.27h295.46v98.185h-403.36zm479.06-609.18h339.47v101.07h-235.61v181.88h149.39v98.546h-149.39v237.5h263.51v100.98h-367.36zm727.36 0h103.86v623.94h263.51v96.026h-367.36zm407.67 358.46c0-376.99 174.86-370.97 213.65-370.97s211.31-5.76 211.31 371.24c0 379.69-172.52 373.75-211.31 373.75s-213.65 5.9394-213.65-374.02zm212.48-269.99c-20.519 0-113.3-4.23-113.3 270.53 0 276.74 92.786 272.51 113.3 272.51s113.22 4.2305 113.22-272.51c0-274.76-92.696-270.53-113.22-270.53zm554.96 434.5h-154.43l-48.148 197h-103.86l179.81-719.97h101.43l179.72 719.97h-103.86zm-129.15-101.07h103.86l-53.188-207.17zm334.11 298.07v-719.97h205.46c43.918 0 197.9 2.16 197.9 358.73 0 326.24-142.19 361.24-189.35 361.24zm184.04-618.9h-80.727v517.84h71.818c84.236 0 127.34-36.809 127.34-255.14-5e-4 -252.98-63.088-262.7-118.44-262.7z"/>
</svg>
