<svg xmlns="http://www.w3.org/2000/svg" xmlns:xlink="http://www.w3.org/1999/xlink" width="1050" height="700" viewBox="0 0 262.5 175">
<path fill="#000000" d="M0 0h262.5v175H0z"/>
<path fill="#fff" d="M19.091 0h224.318L131.25 70zm0 175h224.318L131.25 105zM0 20v135l105-67.5zm262.5 0v135l-105-67.5z"/>
<path fill="#000000" d="M28.636 0h205.227L131.25 65zm0 175h205.227L131.25 110zM0 25v125l95.455-62.5zm262.5 0v125l-95.455-62.5z"/>
<defs>
<path id="A" fill="#fff" d="M16.16 20L0 7.66h20L3.83 20 10 0z"/>
</defs>
<use x="121.25" y="77.5" xlink:href="#A"/>
<use x="83.75" y="52.438" xlink:href="#A"/>
<use x="83.75" y="99.438" xlink:href="#A"/>
<use x="158.75" y="52.438" xlink:href="#A"/>
<use x="158.75" y="99.438" xlink:href="#A"/>
<use x="44.75" y="28.438" xlink:href="#A"/>
<use x="44.75" y="126.563" xlink:href="#A"/>
<use x="197.75" y="28.438" xlink:href="#A"/>
<use x="197.75" y="126.563" xlink:href="#A"/>
<use x="6.75" y="4.875" xlink:href="#A"/>
<use x="6.75" y="150.125" xlink:href="#A"/>
<use x="235.75" y="4.875" xlink:href="#A"/>
<use x="235.75" y="150.125" xlink:href="#A"/>
</svg>
