<?xml version="1.0" encoding="utf-8"?><!-- Uploaded to: SVG Repo, www.svgrepo.com, Generator: SVG Repo Mixer Tools -->
<svg width="800px" height="800px" viewBox="0 0 960 960" fill="none" xmlns="http://www.w3.org/2000/svg">
<path d="M618.791 598.821C574.242 451.772 550.854 298.297 557.689 144.493C558.772 116.535 561.417 88.6343 563.496 60.7183C564.454 47.8503 573.632 39.3843 584.851 40.6193C595.746 41.8183 602.565 51.6253 601.088 64.3493C577.061 267.057 603.919 479.842 685.402 667.545C695.482 688.064 710.024 706.375 715.601 728.915C714.978 729.498 714.354 730.082 713.731 730.665C729.859 730.978 746.343 730.001 762.253 732.164C779.932 734.896 785.032 752.168 772.881 765.254C742.172 789.291 705.873 806.572 669.461 820.199C637.033 831.375 602.876 831.499 568.979 830.814C507.238 829.036 445.148 827.52 383.787 820.385C347.996 815.605 319.646 796.138 296.228 769.184C286.749 758.274 277.305 747.331 267.721 736.512C260.923 728.838 260.099 718.553 265.928 710.793C271.539 703.323 281.09 702.483 290.623 705.232C332.38 714.13 375.823 714.529 418.263 718.915C501.985 723.734 585.057 730.735 669.056 730.255C591.861 657.14 489.29 605.037 391.935 675.346C365.813 692.437 347.176 720.677 323.802 680.961C207.764 473.864 365.944 260.606 518.349 123.918C525.97 116.947 534.855 115.763 541.975 120.602C549.195 125.509 551.641 134.099 547.879 143.712C470.655 294.301 530.152 467.743 617.55 599.428C617.964 599.224 618.377 599.023 618.791 598.821ZM326.26 536.27C328.154 561.657 331.141 598.745 340.487 625.558C343.258 634.525 351.501 638.017 358.711 635.352C365.95 632.675 368.845 625.278 366.345 616.01C330.4 480.977 397.366 345.582 479.534 241.514C484.869 235.457 488.081 224.999 482.543 218.731C473.639 212.796 463.661 221.269 457.505 227.927C376.032 311.324 330.643 417.525 326.26 536.27Z" fill="#000000"/>
<path d="M575.269 895.277C498.521 913.882 459.913 938.591 382.884 895.957C322.764 863.583 273.151 930.103 187.825 891.395C145.29 869.277 126.131 879.204 88.0032 903.006C79.0762 908.234 71.2612 907.745 65.7612 901.525C60.3512 895.407 59.9862 886.243 67.0952 879.286C102.361 844.78 140.117 827.402 186.447 846.065C244.784 874.836 272.569 857.614 330.343 845.369C396.551 831.986 437.032 899.36 507.095 868.343C557.829 848.306 589.895 848.056 641.248 865.843C674.147 877.468 704.96 860.26 735.491 849.317C783.551 828.693 831.243 854.329 878.24 865.544C908.887 873.224 902.812 913.031 870.582 909.894C849.5 905.181 828.188 900.306 807.982 892.48C741.954 867.713 704.716 936.964 620.435 906.562C605.807 902.046 590.697 899.081 575.269 895.277Z" fill="#000000"/>
<path d="M326.262 536.272C330.634 417.549 376.044 311.305 457.506 227.928C463.649 221.285 473.675 212.731 482.546 218.734C488.043 225.1 484.89 235.412 479.534 241.515C397.377 345.555 330.395 481.01 366.348 616.013C368.847 625.279 365.952 632.677 358.713 635.354C351.503 638.02 343.261 634.527 340.488 625.561C331.143 598.777 328.143 561.657 326.262 536.272Z" fill="white"/>
</svg>