<?xml version="1.0" encoding="iso-8859-1"?>
<!-- Uploaded to: SVG Repo, www.svgrepo.com, Generator: SVG Repo Mixer Tools -->
<!DOCTYPE svg PUBLIC "-//W3C//DTD SVG 1.1//EN" "http://www.w3.org/Graphics/SVG/1.1/DTD/svg11.dtd">
<svg fill="#000000" height="800px" width="800px" version="1.1" id="Capa_1" xmlns="http://www.w3.org/2000/svg" xmlns:xlink="http://www.w3.org/1999/xlink" 
	 viewBox="0 0 392.674 392.674" xml:space="preserve">
<g>
	<path d="M385.174,283.995h-64.438c1.414-2.405,2.493-5.027,3.202-7.795h42.791c4.143,0,7.5-3.357,7.5-7.5V143.577
		c0-13.434-10.928-24.363-24.359-24.363H153.72c-13.433,0-24.36,10.93-24.36,24.363v52.596l-53.912,10.125
		c-3.546,0.666-6.115,3.763-6.115,7.371V268.7c0,4.143,3.357,7.5,7.5,7.5h16.685c0.71,2.768,1.79,5.389,3.204,7.795H43.151V160.895
		c15.167-3.427,26.531-17,26.531-33.187c0-18.764-15.267-34.029-34.031-34.029c-18.765,0-34.031,15.266-34.031,34.029
		c0,16.187,11.364,29.76,26.531,33.187v123.101H7.5c-4.142,0-7.5,3.357-7.5,7.5c0,4.143,3.358,7.5,7.5,7.5h377.674
		c4.143,0,7.5-3.357,7.5-7.5C392.674,287.353,389.316,283.995,385.174,283.995z M16.62,127.708c0-10.493,8.537-19.029,19.031-19.029
		c10.494,0,19.031,8.536,19.031,19.029s-8.537,19.029-19.031,19.029C25.157,146.737,16.62,138.201,16.62,127.708z M359.229,194.895
		h-27.158v-40.269h27.158V194.895z M153.72,134.214h196.15c3.749,0,6.98,2.221,8.474,5.412H145.246
		C146.739,136.435,149.971,134.214,153.72,134.214z M317.071,154.626v40.269h-34.185v-40.269H317.071z M267.886,154.626v40.269
		h-34.185v-40.269H267.886z M218.701,154.626v40.269h-34.187v-40.269H218.701z M144.359,154.626h25.155v40.269h-25.155V154.626z
		 M122.856,283.995c-8.435,0-15.296-6.861-15.296-15.295c0-8.435,6.861-15.297,15.296-15.297c8.433,0,15.294,6.862,15.294,15.297
		C138.15,277.134,131.29,283.995,122.856,283.995z M148.989,283.995c1.414-2.406,2.494-5.027,3.204-7.795h113.071
		c0.711,2.768,1.793,5.389,3.208,7.795H148.989z M294.601,283.995c-8.434,0-15.295-6.861-15.295-15.295
		c0-8.435,6.861-15.297,15.295-15.297s15.294,6.862,15.294,15.297C309.895,277.134,303.034,283.995,294.601,283.995z
		 M294.601,238.403c-14.117,0-26.008,9.707-29.354,22.797H152.21c-3.346-13.09-15.237-22.797-29.354-22.797
		c-14.117,0-26.009,9.707-29.355,22.797h-9.169v-41.309l53.226-9.996h221.672v8.99H177.015c-4.143,0-7.5,3.357-7.5,7.5
		c0,4.143,3.357,7.5,7.5,7.5h182.215V261.2h-35.275C320.608,248.11,308.717,238.403,294.601,238.403z"/>
</g>
</svg>