<svg xmlns="http://www.w3.org/2000/svg" width="89.999" height="90.002" viewBox="0 0 253.997 254.005">
    <path d="M3.635 118.185 118.19 3.638c4.848-4.85 12.778-4.85 17.622 0l114.554 114.547c4.843 4.844 4.843 12.774 0 17.625L135.81 250.367c-4.844 4.851-12.774 4.851-17.622 0L3.635 135.81c-4.847-4.85-4.847-12.781 0-17.625" style="fill:#fcd116;fill-opacity:1;fill-rule:nonzero;stroke:none"/>
    <path d="M6.398 120.005 120.01 6.393c3.845-3.845 10.135-3.845 13.98 0l113.612 113.612c3.846 3.846 3.846 10.136 0 13.988L133.99 247.605c-3.845 3.852-10.135 3.852-13.98 0L6.398 133.993c-3.846-3.852-3.846-10.142 0-13.988" style="fill:#000;fill-opacity:1;fill-rule:evenodd;stroke:none"/>
    <path d="M9.947 123.505 123.506 9.949c1.919-1.922 5.07-1.922 6.985 0l113.562 113.556c1.916 1.922 1.916 5.066 0 6.988L130.491 244.056c-1.916 1.923-5.066 1.923-6.985 0L9.946 130.493a4.955 4.955 0 0 1 0-6.988" style="fill:#fcd116;fill-opacity:1;fill-rule:evenodd;stroke:none"/>
    <path d="m118.955 156.955 1.848-1.065a2.837 2.837 0 0 1 3.06.159 2.834 2.834 0 0 1 1.4-2.73l1.845-1.07c1.344-.769 3.08-.307 3.852 1.034l4.706 8.153a2.837 2.837 0 0 1-1.034 3.859l-1.848 1.062a2.83 2.83 0 0 1-3.059-.152 2.842 2.842 0 0 1-1.39 2.727l-1.848 1.062a2.833 2.833 0 0 1-3.86-1.027l-4.706-8.152a2.843 2.843 0 0 1 1.034-3.86M148.955 139.634l1.849-1.066a2.836 2.836 0 0 1 3.058.156 2.848 2.848 0 0 1 1.397-2.727l1.849-1.07a2.843 2.843 0 0 1 3.86 1.034l4.705 8.153c.77 1.344.31 3.08-1.033 3.86l-1.849 1.058a2.821 2.821 0 0 1-3.058-.152 2.85 2.85 0 0 1-1.397 2.73l-1.849 1.063a2.838 2.838 0 0 1-3.86-1.027l-4.705-8.153a2.843 2.843 0 0 1 1.033-3.86M86.746 106.949l43.166-24.924 28.67 49.657-43.165 24.924-28.67-49.657z" style="fill:#000;fill-opacity:1;fill-rule:evenodd;stroke:none"/>
    <path d="M58.686 119.6zm12.46 0zm124.602 0-.014 7.874 6.875-2.054c.953-.26 1.655-.37 2.392.124a2.303 2.303 0 0 1 .607 3.196l-16.105 23.813-16.129-23.813a2.304 2.304 0 0 1 .614-3.196c.695-.476 1.426-.392 2.286-.173l6.989 2.103.021-7.874c.021-30.89-25.17-56.081-56.06-56.081s-56.077 25.191-56.077 56.08v19.238h-12.46V119.6c0-37.755 30.786-68.545 68.537-68.545 37.75 0 68.538 30.79 68.524 68.545M71.146 172.989h112.159v6.237H71.146v-6.237z" style="fill:#000;fill-opacity:1;fill-rule:evenodd;stroke:none"/>
</svg>
