<?xml version="1.0" encoding="utf-8"?>

<!-- Uploaded to: SVG Repo, www.svgrepo.com, Generator: SVG Repo Mixer Tools -->
<svg fill="#000000" height="800px" width="800px" version="1.1" id="Icons" xmlns="http://www.w3.org/2000/svg" xmlns:xlink="http://www.w3.org/1999/xlink" 
	 viewBox="0 0 32 32" xml:space="preserve">
<g>
	<path d="M10,8h12c0.4,0,0.8-0.2,0.9-0.6C23.1,7,23,6.6,22.7,6.3l-6-6c-0.4-0.4-1-0.4-1.4,0l-6,6C9,6.6,8.9,7,9.1,7.4
		C9.2,7.8,9.6,8,10,8z"/>
	<path d="M25,30h-2.2L21,20.8c0,0,0,0,0,0L20.2,17H21h1c0.6,0,1-0.4,1-1s-0.4-1-1-1v-5H10v5c-0.6,0-1,0.4-1,1s0.4,1,1,1h1h0.8
		L11,20.8c0,0,0,0,0,0L9.2,30H7c-0.6,0-1,0.4-1,1s0.4,1,1,1h18c0.6,0,1-0.4,1-1S25.6,30,25,30z M13.8,17h4.4l0.6,3h-5.6L13.8,17z
		 M17.6,22L16,23.6L14.4,22H17.6z M12.6,23l2,2l-3,3L12.6,23z M12.4,30l3.6-3.6l3.6,3.6H12.4z M17.4,25l2-2l1,4.9L17.4,25z"/>
</g>
</svg>